<mxfile host="app.diagrams.net" modified="2023-06-07T00:48:12.562Z" agent="Mozilla/5.0 (Windows NT 10.0; Win64; x64) AppleWebKit/537.36 (KHTML, like Gecko) Chrome/114.0.0.0 Safari/537.36" etag="FdEVo9hLPyjN38bCOxhl" version="21.3.6" type="device">
  <diagram name="페이지-1" id="LYFNXob8Gx8ky-u2NCHv">
    <mxGraphModel dx="1195" dy="630" grid="1" gridSize="10" guides="1" tooltips="1" connect="1" arrows="1" fold="1" page="1" pageScale="1" pageWidth="4681" pageHeight="3300" math="0" shadow="0">
      <root>
        <mxCell id="0" />
        <mxCell id="1" parent="0" />
        <mxCell id="p3hZgzcRSueIuVtCXJIb-13" style="edgeStyle=orthogonalEdgeStyle;rounded=0;orthogonalLoop=1;jettySize=auto;html=1;entryX=0;entryY=0.5;entryDx=0;entryDy=0;" edge="1" parent="1" source="p3hZgzcRSueIuVtCXJIb-4" target="p3hZgzcRSueIuVtCXJIb-5">
          <mxGeometry relative="1" as="geometry" />
        </mxCell>
        <mxCell id="p3hZgzcRSueIuVtCXJIb-4" value="관리자&lt;br&gt;" style="shape=umlActor;verticalLabelPosition=bottom;verticalAlign=top;html=1;outlineConnect=0;" vertex="1" parent="1">
          <mxGeometry x="80" y="120" width="80" height="160" as="geometry" />
        </mxCell>
        <mxCell id="p3hZgzcRSueIuVtCXJIb-10" style="edgeStyle=orthogonalEdgeStyle;rounded=0;orthogonalLoop=1;jettySize=auto;html=1;entryX=0;entryY=0.5;entryDx=0;entryDy=0;" edge="1" parent="1" source="p3hZgzcRSueIuVtCXJIb-5" target="p3hZgzcRSueIuVtCXJIb-7">
          <mxGeometry relative="1" as="geometry" />
        </mxCell>
        <mxCell id="p3hZgzcRSueIuVtCXJIb-11" style="edgeStyle=orthogonalEdgeStyle;rounded=0;orthogonalLoop=1;jettySize=auto;html=1;entryX=0;entryY=0.5;entryDx=0;entryDy=0;" edge="1" parent="1" source="p3hZgzcRSueIuVtCXJIb-5" target="p3hZgzcRSueIuVtCXJIb-8">
          <mxGeometry relative="1" as="geometry" />
        </mxCell>
        <mxCell id="p3hZgzcRSueIuVtCXJIb-12" style="edgeStyle=orthogonalEdgeStyle;rounded=0;orthogonalLoop=1;jettySize=auto;html=1;entryX=0;entryY=0.5;entryDx=0;entryDy=0;" edge="1" parent="1" source="p3hZgzcRSueIuVtCXJIb-5" target="p3hZgzcRSueIuVtCXJIb-9">
          <mxGeometry relative="1" as="geometry" />
        </mxCell>
        <mxCell id="p3hZgzcRSueIuVtCXJIb-5" value="거래처리스트 보기" style="ellipse;whiteSpace=wrap;html=1;" vertex="1" parent="1">
          <mxGeometry x="220" y="160" width="120" height="80" as="geometry" />
        </mxCell>
        <mxCell id="p3hZgzcRSueIuVtCXJIb-15" style="edgeStyle=orthogonalEdgeStyle;rounded=0;orthogonalLoop=1;jettySize=auto;html=1;entryX=0;entryY=0.5;entryDx=0;entryDy=0;entryPerimeter=0;" edge="1" parent="1" source="p3hZgzcRSueIuVtCXJIb-7" target="p3hZgzcRSueIuVtCXJIb-14">
          <mxGeometry relative="1" as="geometry" />
        </mxCell>
        <mxCell id="p3hZgzcRSueIuVtCXJIb-7" value="거래처 추가" style="ellipse;whiteSpace=wrap;html=1;" vertex="1" parent="1">
          <mxGeometry x="440" y="40" width="120" height="80" as="geometry" />
        </mxCell>
        <mxCell id="p3hZgzcRSueIuVtCXJIb-16" style="edgeStyle=orthogonalEdgeStyle;rounded=0;orthogonalLoop=1;jettySize=auto;html=1;entryX=0;entryY=0.5;entryDx=0;entryDy=0;entryPerimeter=0;" edge="1" parent="1" source="p3hZgzcRSueIuVtCXJIb-8" target="p3hZgzcRSueIuVtCXJIb-14">
          <mxGeometry relative="1" as="geometry" />
        </mxCell>
        <mxCell id="p3hZgzcRSueIuVtCXJIb-8" value="거래처 상세보기" style="ellipse;whiteSpace=wrap;html=1;" vertex="1" parent="1">
          <mxGeometry x="440" y="160" width="120" height="80" as="geometry" />
        </mxCell>
        <mxCell id="p3hZgzcRSueIuVtCXJIb-17" style="edgeStyle=orthogonalEdgeStyle;rounded=0;orthogonalLoop=1;jettySize=auto;html=1;entryX=0;entryY=0.5;entryDx=0;entryDy=0;entryPerimeter=0;" edge="1" parent="1" source="p3hZgzcRSueIuVtCXJIb-9" target="p3hZgzcRSueIuVtCXJIb-14">
          <mxGeometry relative="1" as="geometry" />
        </mxCell>
        <mxCell id="p3hZgzcRSueIuVtCXJIb-9" value="거래처 수정" style="ellipse;whiteSpace=wrap;html=1;" vertex="1" parent="1">
          <mxGeometry x="440" y="280" width="120" height="80" as="geometry" />
        </mxCell>
        <mxCell id="p3hZgzcRSueIuVtCXJIb-14" value="거래처정보 Table" style="shape=cylinder3;whiteSpace=wrap;html=1;boundedLbl=1;backgroundOutline=1;size=15;" vertex="1" parent="1">
          <mxGeometry x="670" y="140" width="200" height="120" as="geometry" />
        </mxCell>
      </root>
    </mxGraphModel>
  </diagram>
</mxfile>
